<svg xmlns="http://www.w3.org/2000/svg" viewBox="0 18.149999618530273 77.4000015258789 47.25" data-asc="1.303" width="77.4000015258789" height="47.25"><defs/><g><g fill="#ffa348"><g transform="translate(0, 0)"><path d="M18.60 54.00Q19.25 54.00 19.63 54.60Q20 55.20 20 56.25Q20 58.25 19.05 59.35Q16.90 62.00 14.38 63.70Q11.85 65.40 8.65 65.40Q4.25 65.40 2.13 61.40Q0 57.40 0 51.05Q0 44.95 1.58 37.15Q3.15 29.35 6.22 23.75Q9.30 18.15 13.55 18.15Q15.95 18.15 17.33 20.37Q18.70 22.60 18.70 26.75Q18.70 32.70 15.40 40.55Q12.10 48.40 6.45 56.10Q6.80 58.15 7.60 59.02Q8.40 59.90 9.70 59.90Q11.75 59.90 13.30 58.72Q14.85 57.55 17.25 54.70Q17.85 54.00 18.60 54.00M12.45 23.10Q11.30 23.10 9.85 27.25Q8.40 31.40 7.30 37.55Q6.20 43.70 6.10 49.35Q9.65 43.50 11.75 37.62Q13.85 31.75 13.85 26.90Q13.85 23.10 12.45 23.10ZM41.45 49.80Q42.10 49.80 42.45 50.45Q42.80 51.10 42.80 52.10Q42.80 54.50 41.35 54.95Q38.35 56.00 34.75 56.15Q33.80 60.35 31 62.87Q28.20 65.40 24.65 65.40Q21.65 65.40 19.53 63.95Q17.40 62.50 16.30 60.10Q15.20 57.70 15.20 54.90Q15.20 51.10 16.65 48.12Q18.10 45.15 20.65 43.47Q23.20 41.80 26.30 41.80Q30.10 41.80 32.42 44.42Q34.75 47.05 35.15 50.90Q37.50 50.75 40.75 49.90Q41.15 49.80 41.45 49.80M25.05 60.10Q26.65 60.10 27.83 58.80Q29 57.50 29.40 55.05Q27.85 54.00 27.03 52.30Q26.20 50.60 26.20 48.70Q26.20 47.90 26.35 47.10L26.10 47.10Q24.10 47.10 22.77 49.02Q21.45 50.95 21.45 54.45Q21.45 57.20 22.52 58.65Q23.60 60.10 25.05 60.10ZM64 49.80Q64.65 49.80 65 50.45Q65.35 51.10 65.35 52.10Q65.35 54.50 63.90 54.95Q60.90 56.00 57.30 56.15Q56.35 60.35 53.55 62.87Q50.75 65.40 47.20 65.40Q44.20 65.40 42.08 63.95Q39.95 62.50 38.85 60.10Q37.75 57.70 37.75 54.90Q37.75 51.10 39.20 48.12Q40.65 45.15 43.20 43.47Q45.75 41.80 48.85 41.80Q52.65 41.80 54.98 44.42Q57.30 47.05 57.70 50.90Q60.05 50.75 63.30 49.90Q63.70 49.80 64 49.80M47.60 60.10Q49.20 60.10 50.38 58.80Q51.55 57.50 51.95 55.05Q50.40 54.00 49.58 52.30Q48.75 50.60 48.75 48.70Q48.75 47.90 48.90 47.10L48.65 47.10Q46.65 47.10 45.33 49.02Q44 50.95 44 54.45Q44 57.20 45.08 58.65Q46.15 60.10 47.60 60.10ZM67.60 38.55Q65.50 38.55 64.45 37.57Q63.40 36.60 63.40 34.85Q63.40 33.10 64.78 31.92Q66.15 30.75 68.20 30.75Q70.05 30.75 71.20 31.65Q72.35 32.55 72.35 34.20Q72.35 36.20 71.05 37.37Q69.75 38.55 67.60 38.55M67.20 65.40Q63.95 65.40 62.48 63.10Q61.00 60.80 61.00 57.00Q61.00 54.75 61.58 51.22Q62.15 47.70 63.05 44.65Q63.50 43.05 64.25 42.45Q65 41.85 66.65 41.85Q69.20 41.85 69.20 43.55Q69.20 44.80 68.25 49.35Q67.05 54.85 67.05 56.80Q67.05 58.30 67.45 59.10Q67.85 59.90 68.80 59.90Q69.70 59.90 71.05 58.65Q72.40 57.40 74.65 54.70Q75.25 54.00 76 54.00Q76.65 54.00 77.03 54.60Q77.40 55.20 77.40 56.25Q77.40 58.25 76.45 59.35Q71.50 65.40 67.20 65.40Z"/></g></g></g></svg>
